# xmcd CD database file
#
# Track frame offsets:
#	150
#	35190
#	68640
#	116977
#	149157
#	228247
#	259550
#
# Disc length: 3942 seconds
#
# Revision: 0
# Processed by: cddbd v1.5.1PL2 Copyright (c) Steve Scherf et al.
# Submitted via: CDex 1.51
#
DISCID=690f6407
DTITLE=JOHN COLTRANE - A LOVE SUPREM etc
DYEAR=1900
DGENRE=Jazz
TTITLE0=PART1-ACKNOWLEDGEMEN
TTITLE1=PART2-RESOLUTI
TTITLE2=PART4-PLALM
TTITLE3=PART4-PLALM
TTITLE4=MY FAVAORATE THINGS
TTITLE5=CHIM CHIM CHEREE
TTITLE6=NATURE BOY
EXTD=
EXTT0=
EXTT1=
EXTT2=
EXTT3=
EXTT4=
EXTT5=
EXTT6=
PLAYORDER=
